# xmcd
#
# Track frame offsets: 
#        150
#        13128
#        26119
#        38616
#        51512
#        68490
#        81190
#        90814
#        115578
#        130969
#        148906
#        162972
#        180260
#        195046
#        220546
#        238452
#        263892
#
# Disc length: 3732 seconds
#
# Revision: 1
# Processed by: cddbd v1.5.2PL0 Copyright (c) Steve Scherf et al.
# Submitted via: ExactAudioCopy v1.0b1
#
DISCID=dd0e9211
DTITLE=Various Artist - The Perfumed Garden: Volume 4
DYEAR=1967
DGENRE=Psychedelic Rock
TTITLE0=THE FLIES Magic Train DEMO
TTITLE1=THE JOINT Dinosaur
TTITLE2=BLONDE ON BLONDE Spinning Wheel
TTITLE3=THE MAGIC MIXTURE When I Was Young
TTITLE4=TUCKY BUZZARD Time Will Be Your Doctor
TTITLE5=TIMEBOX Barnabus Swain
TTITLE6=SIMON'S SECRETS I Know What Her Name Is
TTITLE7=PLEASE The Road
TTITLE8=ORANG UTAN Magic Playground
TTITLE9=ARCADIUM Poor Lady
TTITLE10=FLAMING YOUTH Pulsar
TTITLE11=MONUMENT Give Me Life
TTITLE12=FIVE DAY WEEK STRAW PEOPLE Does It Rain
TTITLE13=JOHN MCLAUGHLIN Siren
TTITLE14=THE ANIMALS Gratefully Dead
TTITLE15=ARZACHEL Leg
TTITLE16=THE DEVIANTS Jamie's Song
EXTD=
EXTT0=
EXTT1=
EXTT2=
EXTT3=
EXTT4=
EXTT5=
EXTT6=
EXTT7=
EXTT8=
EXTT9=
EXTT10=
EXTT11=
EXTT12=
EXTT13=
EXTT14=
EXTT15=
EXTT16=
PLAYORDER=
